<?xml version="1.0" standalone="no"?>
<!DOCTYPE svg PUBLIC "-//W3C//DTD SVG 20010904//EN"
 "http://www.w3.org/TR/2001/REC-SVG-20010904/DTD/svg10.dtd">
<svg version="1.0" xmlns="http://www.w3.org/2000/svg"
 width="1280.000000pt" height="170.000000pt" viewBox="0 0 1280.000000 170.000000"
 preserveAspectRatio="xMidYMid meet">

<g transform="translate(0.000000,170.000000) scale(0.100000,-0.100000)"
fill="#0707AF" stroke="none">
<path d="M0 1170 c0 -291 2 -530 4 -530 3 0 47 33 98 73 589 460 847 627 1174
763 484 200 881 187 1404 -46 266 -118 444 -224 1035 -615 566 -374 776 -493
1037 -586 199 -71 311 -92 493 -92 141 0 172 3 260 26 297 78 482 186 1091
637 579 428 826 556 1200 619 221 38 504 22 734 -40 348 -94 647 -247 1139
-581 284 -194 521 -349 643 -421 261 -155 502 -254 713 -293 134 -25 360 -25
515 -1 302 48 538 134 1000 366 l255 128 3 561 2 562 -6400 0 -6400 0 0 -530z"/>
</g>
</svg>
